#N canvas 746 283 450 300 10;
#X declare -lib mrpeach;
#X obj 36 48 adc~;
#X obj 40 242 dac~;
#X obj 16 15 import mrpeach;
#X obj 34 186 *~ 0.5;
#X obj 100 199 *~ 0.5;
#X obj 140 19 udpreceive 9001;
#X obj 141 49 unpackOSC;
#X obj 140 78 routeOSC /garageband;
#X obj 138 105 routeOSC /volume;
#X obj 136 131 unpack f;
#X connect 0 0 3 0;
#X connect 0 1 4 0;
#X connect 3 0 1 0;
#X connect 4 0 1 1;
#X connect 5 0 6 0;
#X connect 6 0 7 0;
#X connect 7 0 8 0;
#X connect 8 0 9 0;
#X connect 9 0 3 1;
#X connect 9 0 4 1;
